<svg xmlns="http://www.w3.org/2000/svg" viewBox="0 0 100 100"  fill="#bb162b" xmlns:v="https://vecta.io/nano"><path d="M50 24.8C22.4 24.8 0 36 0 49.9S22.4 75 50 75s50-11.2 50-25.1-22.4-25.1-50-25.1m0 47C25.7 71.8 5.9 62 5.9 49.9S25.7 28 50 28s44.1 9.8 44.1 21.9S74.3 71.8 50 71.8"/><path d="M45.1 38.7h.8a.47.47 0 0 1 .5.5v22.9a.47.47 0 0 0 .5.5h6a.47.47 0 0 0 .5-.5V37.7a.47.47 0 0 0-.5-.5H45c-.1 0-.1.1-.1.1v1.3c.2 0 .2.1.2.1m13.6 23.9h5.9c.3 0 .6-.2.7-.5l5-15.8s.1-.2.2-.2.2.2.2.2l5.1 15.8c.1.3.4.5.7.5h5.9c.2 0 .3-.1.4-.2.1-.2.1-.4.1-.5l-8.2-24.5c-.1-.3-.5-.4-.7-.4h-9.4c-.1 0-.1.1-.1.1v1.3c0 .1.1.1.1.1h.7c.3 0 .5.2.5.4 0 .1 0 .2-.1.3L58.2 62a.9.9 0 0 0 .1.5c.1.1.2.1.4.1M18.6 38.7a.47.47 0 0 1 .5.5v22.9a.47.47 0 0 0 .5.5h5.8a.47.47 0 0 0 .5-.5v-9.6c0-.2.1-.3.3-.3s.3.1.4.2l6.9 9.6c.2.3.6.6.9.6h6.9c.2 0 .3-.1.4-.3a.47.47 0 0 0-.1-.6l-8.8-12.4s0-.1-.1-.1V49c0-.1.1-.2.1-.3h0l7.3-10.9c.1-.2.1-.4 0-.5-.1-.2-.3-.3-.4-.3h-6.6c-.3 0-.7.3-.9.6l-5.7 8.1c-.2.3-.4.3-.4.3h0c-.2 0-.3-.1-.3-.3v-8.1a.47.47 0 0 0-.5-.5h-7.7c-.1 0-.1.1-.1.1v1.3c0 .1.1.1.1.1l1 .1z" fill-rule="evenodd"/></svg>