<svg xmlns="http://www.w3.org/2000/svg" viewBox="0 0 100 100"  xmlns:v="https://vecta.io/nano"><style><![CDATA[.P{fill-rule:evenodd}.Q{fill:#434242}.R{fill:#f9f9f9}]]></style><linearGradient id="A" gradientUnits="userSpaceOnUse" x1="33.841" y1="55.957" x2="33.841" y2="34.158"><stop offset="0" stop-color="#5b5b5b"/><stop offset="1" stop-color="#434242"/></linearGradient><path d="M27.4 54.1l3.2-7c1.5-3.2 3.3-7.3 4.2-9.3s.9-2 .6-2.3-.9-.8-1.2-1c-.3-.3-.3-.3-.2-.3.2 0 .5 0 1.2.4.7.5 1.8 1.4 2.8 2.3.9.9 1.7 1.8 2.2 2.6s.7 1.5.7 2.2-.2 1.5-.3 1.9l-.1.4v-.4c0-.4.1-1.1.1-1.8s-.2-1.2-.5-1.8a11.22 11.22 0 0 0-1.3-1.6c-.4-.4-.6-.6-.8-.7-.1-.1-.1-.1-.2.1s-.3.5-.9 1.8c-.6 1.4-1.6 3.8-2.5 6.2l-2.3 5.8c-.5 1.2-.6 1.5-1.2 2s-1.5 1.4-2.2 1.8-1.2.5-1.5.4-.4-.2-.4-.3c0 0 .1-.2.6-1.4z" fill="url(#A)" class="P"/><linearGradient id="B" gradientUnits="userSpaceOnUse" x1="49.189" y1="67.559" x2="49.189" y2="48.298"><stop offset="0" stop-color="#787878"/><stop offset=".133" stop-color="#7c7c7c"/><stop offset=".369" stop-color="#5b5b5c"/><stop offset=".62" stop-color="#b2b3b3"/><stop offset=".82" stop-color="#444545"/><stop offset="1" stop-color="gray"/></linearGradient><path d="M23.6 62.6l.8-1.9c.2-.5.4-.8.5-.9s.3-.2.6-.2.6 0 1.7.1l4.4.4 4.6.2 4.9.1h5.1l4.5-.2a14.28 14.28 0 0 0 2.8-.5c.8-.2 1.4-.5 2-.7.6-.3 1.1-.6 1.6-1l1.3-1.1a7.51 7.51 0 0 1 .7-.8c.1-.2.1-.3.1-.4-.1-.1-.2-.4-.4-.8l-.9-1.6c-.2-.4-.2-.5-.2-.6s.1-.2 1.1-1l3.6-2.7c.9-.7.9-.7 2.7-.6l7.4.3 2.1.2c.1 0 .2.1.2.2.1.1.1.2.1.4s0 .4-.2.8c-.1.4-.4 1.1-.6 1.5s-.4.6-.6.8c-.2.1-.4.2-.7.2s-.5 0-1-.2l-1.7-.4c-.6-.1-1.1-.1-1.4-.1s-.4 0-.6.1-.4.3-.6.5l-.7.7c-.1.2-.1.2.1.4l1.1 1 1.6 1.3a4.7 4.7 0 0 1 1 1.1c.3.4.4.8.5 1.2s.1.9.1 1.5c-.1.6-.3 1.5-.5 2.1-.2.7-.5 1.2-.8 1.5-.3.4-.6.7-.8.9l-1 .6c-.5.3-1.4.6-2.6.9s-2.6.6-4 .7c-1.4.2-2.8.3-4.8.4l-6.6.3c-1.9 0-3.1 0-4.5-.1l-4.7-.3-5.2-.5c-1.8-.2-3.5-.6-5-.9l-3.7-.8-2.6-.7c-.6-.2-.9-.4-1-.6-.1 0 0-.2.2-.8z" fill="url(#B)" class="P"/><linearGradient id="C" gradientUnits="userSpaceOnUse" x1="49.969" y1="69.063" x2="49.969" y2="30.783"><stop offset="0" stop-color="#5e5e5e"/><stop offset=".251" stop-color="#515050"/><stop offset=".502" stop-color="#9d9d9d"/><stop offset="1" stop-color="#434242"/></linearGradient><path d="M50 30.8c25.6 0 46.3 8.6 46.3 19.1S75.5 69.1 50 69.1 3.7 60.5 3.7 49.9 24.4 30.8 50 30.8zm0 2.2c22.6 0 40.8 7.6 40.8 16.9S72.5 66.8 50 66.8 9.1 59.2 9.1 49.9 27.4 33 50 33h0z" fill="url(#C)" class="P"/><defs><filter id="D" filterUnits="userSpaceOnUse" x="90.2" y="46.4" width="6.1" height="3.8"><feColorMatrix values="1 0 0 0 0  0 1 0 0 0  0 0 1 0 0  0 0 0 1 0"/></filter></defs><mask maskUnits="userSpaceOnUse" x="90.2" y="46.4" width="6.1" height="3.8" id="E"><linearGradient id="F" gradientUnits="userSpaceOnUse" x1="88.507" y1="81.673" x2="95.316" y2="15.139"><stop offset="0" stop-color="#fff" stop-opacity="0"/><stop offset=".42" stop-color="#fff" stop-opacity="0"/><stop offset="1" stop-color="#fff"/></linearGradient><path d="M90.2 46.4h6.1v3.8h-6.1z" fill="url(#F)" filter="url(#D)" class="P"/></mask><path d="M95.5 46.4c.1.2.2.4.2.6l-5.4.5a.76.76 0 0 0-.2-.4l5.4-.7zm.3.9c.3.9.4 1.7.4 2.6v.2h-5.5v-.2c0-.7-.1-1.4-.3-2.2l5.4-.4z" mask="url(#E)" class="P R"/><defs><filter id="G" filterUnits="userSpaceOnUse" x="3.8" y="46" width="6.2" height="3.9"><feColorMatrix values="1 0 0 0 0  0 1 0 0 0  0 0 1 0 0  0 0 0 1 0"/></filter></defs><mask maskUnits="userSpaceOnUse" x="3.8" y="46" width="6.2" height="3.9" id="H"><linearGradient id="I" gradientUnits="userSpaceOnUse" x1="10.772" y1="102.854" x2="4.163" y2="-6.848"><stop offset="0" stop-color="#fff" stop-opacity="0"/><stop offset=".412" stop-color="#fff" stop-opacity="0"/><stop offset="1" stop-color="#fff"/></linearGradient><path d="M3.8 46H10v3.9H3.8z" fill="url(#I)" filter="url(#G)" class="P"/></mask><path d="M3.8 49.8L5.3 46l4.8.3c-.6 1.2-.9 2.3-.9 3.6h0c-.1 0-5.4-.1-5.4-.1z" mask="url(#H)" class="P R"/><defs><filter id="J" filterUnits="userSpaceOnUse" x="29.3" y="32.3" width="11.9" height="3.1"><feColorMatrix values="1 0 0 0 0  0 1 0 0 0  0 0 1 0 0  0 0 0 1 0"/></filter></defs><mask maskUnits="userSpaceOnUse" x="29.3" y="32.3" width="11.9" height="3.1" id="K"><linearGradient id="L" gradientUnits="userSpaceOnUse" x1="31.383" y1="59.81" x2="37.876" y2="8.003"><stop offset="0" stop-color="#fff" stop-opacity="0"/><stop offset=".478" stop-color="#fff" stop-opacity="0"/><stop offset="1" stop-color="#fff"/></linearGradient><path d="M29.3 32.3h11.9v3.1H29.3z" fill="url(#L)" filter="url(#J)" class="P"/></mask><path d="M38.4 32.4c-.7.1-1.5.1-2.4.2l-2.7.4-2.6.6c-.7.2-1 .4-1.2.7a1.69 1.69 0 0 0-.3 1c3.7-.9 7.7-1.6 11.9-1.9v-.1c-.1-.5-.4-.8-.9-.9-.4-.2-1.1-.1-1.8 0z" mask="url(#K)" fill="#2f2f2f" class="P"/><linearGradient id="M" gradientUnits="userSpaceOnUse" x1="36.802" y1="54.339" x2="36.802" y2="32.383"><stop offset="0" stop-color="#9d9d9d"/><stop offset=".149" stop-color="#a7a8a8"/><stop offset=".278" stop-color="#818181"/><stop offset=".631" stop-color="#5b5b5c"/><stop offset="1" stop-color="#b2b3b3"/></linearGradient><path d="M38.8 32.4h-.7c-.1 0-.2.1-.8.4s-1.6.9-2.1 1.2l-.5.3.2.2c.2.2.7.6 1.4 1.2l2.3 2.1c.7.7 1.1 1.2 1.4 1.7s.6 1 .7 1.4.1.8.1 1.4c-.1.6-.2 1.3-.5 2-.3.8-.7 1.6-1.2 2.4L37.5 49c-.6.7-1.2 1.4-1.9 1.9-.6.5-1.3.9-1.9 1.1-.6.3-1.2.5-1.7.6-.5.2-.9.3-1.5.4s-1.3.3-1.7.3c-.4.1-.4.1-.4.2-.1.1-.2.4-.3.6l-.1.1h.9c.9 0 2.6.1 4.6-.3s4.3-1.4 6.2-2.8c1.8-1.3 3.1-3 4.2-4.7s1.8-3.4 2.1-5.2 0-3.8-1.2-5.2c-1.1-1.5-3.1-2.5-4.2-3.1l-1.8-.5z" fill="url(#M)" class="P"/><linearGradient id="N" gradientUnits="userSpaceOnUse" x1="47.58" y1="57.055" x2="47.58" y2="32.917"><stop offset="0" stop-color="#525252"/><stop offset=".082" stop-color="#4b4a4a"/><stop offset=".169" stop-color="#4d4d4d"/><stop offset=".278" stop-color="#434242"/><stop offset=".51" stop-color="#434242"/><stop offset=".722" stop-color="#696969"/><stop offset=".871" stop-color="#434242"/></linearGradient><path d="M32.4 53c-.5 0-.6-.2-.7-.4l-.3-.6c-.1-.2-.2-.3-.3-.2s-.3.5-.7.8-1.1.5-1.6.7-.8.3-1 .5-.3.3-.5.7-.5 1-.6 1.4-.1.5.1.7c.1.1.3.2.8.3.4.1 1.3.1 2.7.1l5.7-.1 6.3-.4 4.7-.7c1.3-.3 2.3-.6 3.4-1.1l3.5-1.8c1.2-.6 2.2-1.3 3.7-2.3l4.9-3.6 3.6-3.4c.9-.9 1.4-1.6 1.7-2.4.4-.7.6-1.5.6-2.1.1-.7.1-1.2 0-1.7s-.2-1-.4-1.4-.4-.7-.7-1.1c-.3-.3-.7-.6-1.3-1s-1.5-.8-2.2-1-1.2-.2-1.6.2-.7 1.2-1.6 3.2-2.3 5.2-5.2 8-7.3 5.1-11.3 6.6-7.7 2.3-9.3 2.4c-1.6.2-1.1-.3-1.3-.4.1 0-.6.1-1.1.1z" fill="url(#N)" class="P"/><defs><filter id="O" filterUnits="userSpaceOnUse" x="57.8" y="51.2" width="3.5" height="5"><feColorMatrix values="1 0 0 0 0  0 1 0 0 0  0 0 1 0 0  0 0 0 1 0"/></filter></defs><mask maskUnits="userSpaceOnUse" x="57.8" y="51.2" width="3.5" height="5" id="P"><radialGradient id="Q" cx="29919.19" cy="37966.871" r="71.125" gradientTransform="matrix(1.807534e-02 0 0 -1.807534e-02 -447.9213 728.4385)" gradientUnits="userSpaceOnUse"><stop offset="0" stop-color="#fff"/><stop offset=".639" stop-color="#fff" stop-opacity="0"/></radialGradient><path d="M57.8 51.2h3.5v5h-3.5z" fill="url(#Q)" filter="url(#O)" class="P"/></mask><path d="M59.2 56c.2-.3.2-.4.1-.5s-.2-.4-.4-.8l-.9-1.6c-.2-.4-.2-.5-.2-.6s.1-.2 1.1-1c.1-.1.3-.2.5-.4.7.9 1.4 2.5 1.7 3.5.3 1.1.2 1.4-.4 1.5-.4.1-.9.1-1.5-.1h0z" mask="url(#P)" class="P Q"/><defs><filter id="R" filterUnits="userSpaceOnUse" x="63" y="50.7" width="7.6" height="2.4"><feColorMatrix values="1 0 0 0 0  0 1 0 0 0  0 0 1 0 0  0 0 0 1 0"/></filter></defs><mask maskUnits="userSpaceOnUse" x="63" y="50.7" width="7.6" height="2.4" id="S"><radialGradient id="T" cx="30698.141" cy="38081.234" r="173.833" gradientTransform="matrix(1.807534e-02 0 0 -1.807534e-02 -447.9213 728.4385)" gradientUnits="userSpaceOnUse"><stop offset="0" stop-color="#fff"/><stop offset="1" stop-color="#fff" stop-opacity="0"/></radialGradient><path d="M63 50.7h7.6v2.4H63z" fill="url(#T)" filter="url(#R)" class="P"/></mask><path d="M70.6 52.3c-.1 0-.3-.1-.4-.1-.6-.1-1.1-.1-1.4-.1s-.4 0-.6.1-.4.3-.6.5l-.4.4-3.4-.3c-.8-.1-.8-.1-.7-.2s.3-.4.9-.8a6.5 6.5 0 0 1 2.5-1c1-.2 2.2-.2 2.9 0s1.1.5 1.2 1v.5z" mask="url(#S)" class="P Q"/><g class="P"><path d="M67.9 35.6c0-.1-.1-.2-.1-.3V35c.1-.1.2-.1.3-.1h.5c.2 0 .3.1.4.1h.1l-.4-.1c-.4-.1-1.1-.4-1.6-.6s-1.1-.5-1.3-.6l-.2-.1.2.2c.2.2.6.6.9.8s.4.4.5.5l.2.2c.1.1.2.1.3.2s.2.1.2.1h0z" fill="#4a4a4a"/><path d="M63.9 32.8c.2.1.6.2 1.1.5l1.7 1c.5.3.7.5.8.6s.1.2.1.2 0 .1-.1.1h-.2s-.1-.1-.4-.2l-1.2-.8c-.4-.3-.9-.5-1.2-.7l-.9-.4c-.2-.1-.2-.1-.2-.2s0-.1.1-.2c.1 0 .2 0 .4.1h0z" fill="#898989"/></g><defs><filter id="U" filterUnits="userSpaceOnUse" x="64.7" y="53.6" width="2.1" height="1.5"><feColorMatrix values="1 0 0 0 0  0 1 0 0 0  0 0 1 0 0  0 0 0 1 0"/></filter></defs><mask maskUnits="userSpaceOnUse" x="64.7" y="53.6" width="2.1" height="1.5" id="V"><linearGradient id="W" gradientUnits="userSpaceOnUse" x1="66.243" y1="53.48" x2="65.193" y2="55.172"><stop offset="0" stop-color="#fff" stop-opacity="0"/><stop offset=".231" stop-color="#fff" stop-opacity="0"/><stop offset="1" stop-color="#fff"/></linearGradient><path d="M64.7 53.6h2.1v1.5h-2.1z" fill="url(#W)" filter="url(#U)" class="P"/></mask><path d="M66.2 54.8c-.2-.1-.5-.4-.8-.6s-.5-.4-.7-.5c-.1-.1-.1-.1 0-.1h.6c.2 0 .5.1.7.1.2.1.4.1.5.2s.2.2.2.4 0 .3-.1.5c-.1.1-.1.2-.2.3h-.1c.1-.1.1-.1-.1-.3z" mask="url(#V)" class="P Q"/><defs><filter id="X" filterUnits="userSpaceOnUse" x="23.6" y="59.6" width="2" height="3.9"><feColorMatrix values="1 0 0 0 0  0 1 0 0 0  0 0 1 0 0  0 0 0 1 0"/></filter></defs><mask maskUnits="userSpaceOnUse" x="23.6" y="59.6" width="2" height="3.9" id="Y"><linearGradient id="Z" gradientUnits="userSpaceOnUse" x1="26.028" y1="59.791" x2="24.298" y2="62.488"><stop offset="0" stop-color="#fff" stop-opacity="0"/><stop offset=".4" stop-color="#fff" stop-opacity="0"/><stop offset="1" stop-color="#fff"/></linearGradient><path d="M23.6 59.6h2v3.9h-2z" fill="url(#Z)" filter="url(#X)" class="P"/></mask><path d="M23.9 63.4c-.1 0-.2.1-.2 0-.1 0-.1-.1-.1-.3s.1-.5.3-1 .5-1.1.7-1.5l.5-.9.2-.2v.6c0 .2.1.3.1.4s0 .1-.1.4-.4.9-.6 1.4l-.5.9c-.1.1-.1.1-.2.1.1.1 0 .1-.1.1h0z" mask="url(#Y)" class="P Q"/><g class="P"><path d="M68.7 64.5c.3-.2.6-.5 1-.9s.8-.9 1-1.2.2-.3.2-.2c-.1.1-.2.4-.3.7s-.2.6-.2.8.1.4.2.4c.1.1.3.1.6.1s.6-.1.8-.1h.2l-.4.2c-.4.2-1.3.5-2.1.8s-1.7.6-1.9.6c-.3.1 0-.1.2-.3s.2-.3.4-.5c-.2-.1 0-.2.3-.4h0z" fill="#585959"/><path d="M35.9 35.4c.1-.2.3-.4.4-.6s.2-.2.3-.3v.1c0 .1-.1.2-.1.4-.1.2-.2.5-.3.7s-.2.3-.3.3-.1-.1-.1-.2 0-.2.1-.4z" class="Q"/><path d="M37.7 37.1c0-.1.1-.2.2-.3s.1-.3.2-.3v-.1.4c0 .2-.1.4-.1.5s0 .1-.1.1h-.1c-.1 0-.1-.1-.1-.1-.1-.1-.1-.1 0-.2z" fill="#474646"/></g><linearGradient id="a" gradientUnits="userSpaceOnUse" x1="49.156" y1="66.8" x2="49.156" y2="48.742"><stop offset="0" stop-color="#949494"/><stop offset=".027" stop-color="#c6c6c6"/><stop offset=".059" stop-color="#b0b0b0"/><stop offset=".239" stop-color="#f9f9f9"/></linearGradient><g class="P"><path d="M24.5 62l.5-1.1c.2-.3.3-.4.7-.4s1 .1 2.4.2l6.3.5 7.7.2 6.7-.2 4.1-.4c1.1-.2 1.9-.5 2.8-.9a17.61 17.61 0 0 0 2.3-1.4c.7-.5 1.2-1 1.6-1.3.3-.3.5-.5.6-.7s.1-.5.1-.8c-.1-.3-.2-.6-.5-1.1l-1-1.5c-.2-.4-.2-.5.6-1.2l3.2-2.4c.8-.6 1-.7 1.1-.7l2.1.1 6.8.3c1.7.1 1.7.1 1.7.2s0 .3-.2.7c-.1.4-.4.9-.5 1.3-.2.4-.3.5-.5.6s-.6 0-1.4-.1l-2.9-.4c-.8-.1-1.2-.1-1.6 0s-.7.2-1.2.5-1 .7-1.3 1-.3.4-.1.6c.1.2.3.4.8.8a23.2 23.2 0 0 1 1.8 1.6c.6.5.9 1 1.2 1.4.2.4.3.8.3 1.3 0 .4-.1.9-.4 1.7-.3.7-.9 1.7-1.5 2.5s-1.1 1.5-1.6 1.9-.9.7-1.3.8l-1.7.5c-.7.1-1.6.3-3.2.4l-6 .3c-2.3 0-4.7 0-7-.1l-6.8-.5-5.8-.7-4.9-1c-1.5-.3-2.7-.7-3.4-.9s-.8-.2-.8-.3v-.4c0-.2.1-.5.2-.9h0z" fill="url(#a)"/><path d="M69.1 64.3c-.3.1-1 .5-1.8.9s-1.7.7-2.7.9l-3.6.6c-1.5.2-3.5.3-5.7.4l-7.3.1c-2.4 0-4.7-.2-6.8-.3l-6-.7-5.2-.9-5-1.2-1.5-.3c-.1 0-.1 0 .1.2.2.1.6.4 1.5.7s2.2.6 3.8 1l5.5 1.1 5.8.7 6.6.4h6.4l5.3-.3 3.9-.4c1-.1 1.8-.3 2.5-.5s1.3-.3 1.9-.6c.6-.2 1.3-.6 1.7-.8.5-.3.7-.4.9-.6.1-.3.1-.5-.3-.4h0z" fill="#e7e7e7"/><path d="M35.3 37.7l1.4-3.2.2.3c.2.3.7.8.9 1.2.2.3.2.4.1.6s-.3.4-1 1.9L34 45.4l-2.5 6.2L31 53l-3 .6 1.4-3.2c1.6-3.1 4.4-9.5 5.9-12.7h0z" class="R"/></g><linearGradient id="b" gradientUnits="userSpaceOnUse" x1="27424.268" y1="37171.754" x2="27272.293" y2="38540.637" gradientTransform="matrix(1.807534e-02 0 0 -1.807534e-02 -447.9213 728.4385)"><stop offset="0" stop-color="#919191"/><stop offset=".039" stop-color="#bdbdbd"/><stop offset=".078" stop-color="#b4b4b5"/><stop offset=".439" stop-color="#f9f9f9"/><stop offset=".788" stop-color="#f9f9f9"/><stop offset="1" stop-color="#e9e9e9"/></linearGradient><path d="M39.5 48.9c.6-.7 1.4-1.8 2-2.8.6-.9 1.1-1.7 1.3-2.3.3-.6.4-1.1.5-1.6s.2-1.1.1-1.6c0-.6-.1-1.2-.3-1.7-.2-.6-.5-1.1-.9-1.8a22.22 22.22 0 0 0-1.7-2.2l-2.1-2.2-.4-.4.8-.1 3.9-.3 5.6-.2 6.8.1 6 .4c1.4.1 2 .2 2.3.3.3 0 .3 0 .3.1s0 .2.2.5c.2.2.4.6.8 1 .3.4.6.9.9 1.4s.5 1.1.6 1.7.1 1.3-.1 1.9a4.49 4.49 0 0 1-.7 1.8c-.3.6-.8 1.3-1.5 2.1l-2.8 2.9-4.4 3.6-4.2 2.8L49 54c-1.1.4-2.4.8-3.6 1.1s-2.3.4-4.3.6l-7.1.4h-5.7c-1.1 0-1.2-.1-1.3-.2s-.1-.2 0-.4c0-.2.1-.4.3-.7.1-.3.3-.7.4-.9.3.1.3 0 .3 0l.5-.1 2.6-.4 2.8-.6c.8-.2 1.3-.4 1.8-.6l1.5-.9c.4-.3.8-.7 1.1-1 .3-.4.6-.7 1.2-1.4h0z" fill="url(#b)" class="P"/><linearGradient id="c" gradientUnits="userSpaceOnUse" x1="26711.234" y1="37092.594" x2="26559.26" y2="38461.477" gradientTransform="matrix(1.807534e-02 0 0 -1.807534e-02 -447.9213 728.4385)"><stop offset="0" stop-color="#d9dada"/><stop offset="1" stop-color="#f9f9f9"/></linearGradient><path d="M39.5 48.9c.3-.3.6-.8.9-1.2-.4.5-.7 1.1-1 1.5-.6.9-.9 1.3-1.3 1.6-.3.3-.7.6-1 .9-.3.2-.7.5-1.1.7s-.8.3-1.3.5-1.2.3-2 .5-1.8.4-2.7.5l-2.2.3v-.1c.2-.1.2-.2.2-.2l.5-.1 2.6-.4 2.8-.6c.8-.2 1.3-.4 1.8-.6l1.5-.9c.4-.3.8-.7 1.1-1 .3-.4.6-.7 1.2-1.4h0z" fill="url(#c)" class="P"/><linearGradient id="d" gradientUnits="userSpaceOnUse" x1="50" y1="70.339" x2="50" y2="29.464"><stop offset="0" stop-color="#828282"/><stop offset=".078" stop-color="#b9b9b9"/><stop offset=".169" stop-color="#b6b7b7"/><stop offset=".541" stop-color="#f9f9f9"/><stop offset="1" stop-color="#f0f0f0"/></linearGradient><path d="M50 29.5c27.4 0 49.6 9.2 49.6 20.4 0 11.3-22.2 20.4-49.6 20.4S.4 61.1.4 49.9C.4 38.6 22.6 29.5 50 29.5zm0 1.9c24.8 0 44.9 8.3 44.9 18.5S74.8 68.4 50 68.4 5.1 60.1 5.1 49.9 25.2 31.4 50 31.4h0z" fill="url(#d)" class="P"/><linearGradient id="e" gradientUnits="userSpaceOnUse" x1="50" y1="70.339" x2="50" y2="29.464"><stop offset="0" stop-color="#f9f9f9"/><stop offset=".447" stop-color="#f0f0f0"/><stop offset=".949" stop-color="#f9f9f9"/><stop offset="1" stop-color="#e7e7e7"/></linearGradient><g class="P"><path d="M50 29.5c26.6 0 48.3 8.6 49.5 19.5-1.4 1.5-3.2 2.9-5.3 4.2.4-1 .7-2.1.7-3.2 0-10.2-20.1-18.5-44.9-18.5S5.1 39.7 5.1 49.9c0 1.1.2 2.2.7 3.2-2.2-1.3-4-2.7-5.3-4.2C1.7 38.1 23.4 29.5 50 29.5h0z" fill="url(#e)"/><path d="M50 29.1c13.7 0 26.2 2.3 35.2 6 9.1 3.8 14.8 9 14.8 14.8S94.4 61 85.2 64.7c-9 3.7-21.5 6-35.2 6s-26.2-2.3-35.2-6C5.6 61 0 55.7 0 49.9s5.6-11.1 14.8-14.8c9-3.7 21.5-6 35.2-6zm0 .4c27.4 0 49.6 9.2 49.6 20.4 0 11.3-22.2 20.4-49.6 20.4S.4 61.2.4 49.9 22.6 29.5 50 29.5z" class="Q"/></g><linearGradient id="f" gradientUnits="userSpaceOnUse" x1="45.042" y1="55.608" x2="45.042" y2="32.741"><stop offset="0" stop-color="#d9dada"/><stop offset=".702" stop-color="#f9f9f9"/><stop offset="1" stop-color="#eee"/></linearGradient><path d="M52.3 48l2.8-2.4 1.9-2c.5-.5.8-1 1.1-1.4.3-.5.5-.9.7-1.4a3.08 3.08 0 0 0 .3-1.3c0-.4.1-.9.1-1.4s-.2-1-.4-1.5-.5-1.1-.9-1.6-.9-1.1-1.3-1.4l-.7-.7c-.1-.1-.1-.1.1 0a4.79 4.79 0 0 1 1.1.8c.5.4.9.9 1.3 1.4s.6 1 .8 1.5a4.53 4.53 0 0 1 .3 1.6c0 .6 0 1.1-.1 1.7s-.4 1.2-.7 1.8-.8 1.3-1.4 2.1c-.6.7-1.4 1.5-2.2 2.3l-3 2.5-3.6 2.6c-1.1.7-1.8 1.2-2.7 1.6-.8.4-1.7.8-2.7 1.1l-2.8.8-2.7.5c-.9.1-1.9.3-3.2.3s-2.8 0-3.5-.1h-.4l2.1-.1 4-.3 3.6-.6c1-.2 1.9-.5 2.8-.8.8-.3 1.6-.7 2.5-1.1.8-.4 1.7-.9 2.5-1.5a20.95 20.95 0 0 0 2.2-1.6c.8-.4 1.3-.8 2.1-1.4h0z" fill="url(#f)" class="P"/><linearGradient id="g" gradientUnits="userSpaceOnUse" x1="41.143" y1="54.616" x2="41.143" y2="32.701"><stop offset="0" stop-color="#d9dada"/><stop offset=".251" stop-color="#e3e3e3"/><stop offset=".549" stop-color="#f9f9f9"/><stop offset=".722" stop-color="#f9f9f9"/><stop offset="1" stop-color="#ededed"/></linearGradient><g class="P"><path d="M36.2 53.8l2.3-.7c.8-.3 1.6-.7 2.5-1.2s1.8-1.2 2.8-2l2.7-2.5 2.2-2.5 1.4-1.9c.4-.6.6-1.1.8-1.7.2-.5.3-1 .3-1.5s0-1-.1-1.6c-.2-.6-.4-1.2-.8-1.8-.3-.6-.8-1.2-1.3-1.8s-1.2-1.2-1.5-1.6c-.3-.3-.3-.3-.2-.3.1.1.4.2.8.5s1 .8 1.4 1.4a6.57 6.57 0 0 1 1.2 1.7c.3.6.6 1.1.7 1.7.2.6.2 1.2.2 1.8s-.2 1.2-.4 1.8-.5 1.2-1 1.8c-.4.7-1 1.5-1.8 2.3-.7.9-1.6 1.8-2.5 2.7a26.82 26.82 0 0 1-2.6 2.3c-.8.6-1.6 1.2-2.4 1.6l-2.3 1.1c-.8.3-1.5.5-2.4.7s-2.1.3-3 .4h-2.1c-.4 0-.4 0 .2-.1.6 0 1.7-.1 2.7-.3.8 0 1.4-.1 2.2-.3h0z" fill="url(#g)"/><path d="M52.3 47.7l2.8-2.4 1.9-2c.5-.5.8-1 1.1-1.4.3-.5.5-.9.7-1.4a3.08 3.08 0 0 0 .3-1.3c.1-.4.1-.9.1-1.4s-.2-1-.4-1.5-.5-1.1-.9-1.6-.9-1.1-1.3-1.4l-.7-.7c-.1-.1-.1-.1.1 0a4.79 4.79 0 0 1 1.1.8c.5.4.9.9 1.3 1.4s.6 1 .8 1.5a4.53 4.53 0 0 1 .3 1.6c0 .6 0 1.1-.1 1.7s-.4 1.2-.7 1.8-.8 1.3-1.4 2.1c-.6.7-1.4 1.5-2.2 2.3l-3 2.5-3.6 2.6c-1.1.7-1.8 1.2-2.7 1.6-.8.4-1.7.8-2.7 1.1l-2.8.8-2.7.5-3.2.4-3.6.2h-.4c.4 0 1.1-.1 2.2-.3l4-.4c1.4-.2 2.6-.4 3.6-.7 1-.2 1.9-.5 2.8-.8.8-.3 1.6-.7 2.5-1.1.8-.4 1.7-.9 2.5-1.5a20.95 20.95 0 0 0 2.2-1.6c.8-.4 1.3-.8 2.1-1.4h0zm-16.1 5.8l2.3-.7c.8-.3 1.6-.7 2.5-1.2s1.8-1.2 2.8-2l2.7-2.5 2.2-2.5 1.4-1.9c.4-.6.6-1.1.8-1.7.2-.5.3-1 .3-1.5s0-1-.1-1.6c-.2-.6-.4-1.2-.8-1.8-.3-.6-.8-1.2-1.3-1.8s-1.2-1.2-1.5-1.6c-.3-.3-.3-.3-.2-.3.1.1.4.2.8.5s1 .8 1.4 1.4a6.57 6.57 0 0 1 1.2 1.7c.3.6.6 1.1.7 1.7.2.6.2 1.2.2 1.8s-.2 1.2-.4 1.8-.5 1.2-1 1.8c-.4.7-1 1.5-1.8 2.3-.7.9-1.6 1.8-2.5 2.7a26.82 26.82 0 0 1-2.6 2.3c-.8.6-1.6 1.2-2.4 1.6l-2.3 1.1c-.8.3-1.5.5-2.4.7s-2.1.4-3 .5l-2.2.2c-.4 0-.4 0 .2-.1l2.8-.5c.8-.1 1.4-.3 2.2-.4h0z" fill="#b2b3b3"/></g></svg>