<svg xmlns="http://www.w3.org/2000/svg" xmlns:xlink="http://www.w3.org/1999/xlink" viewBox="0 0 100 100" xmlns:v="https://vecta.io/nano"><style><![CDATA[.l{enable-background:new}.m{clip-path:url(#AN)}.n{clip-path:url(#g)}.o{clip-path:url(#AW)}]]></style><path d="M83.4 77.1v2h4.2v9h2.9v-9h4.2v-2zm-7.9 0v11h9.1V86h-6.2v-8.9zm-55.6 0v11h9.6V86h-6.7v-2.5h6v-2h-6v-2.4h6.5v-2zM14.8 84c1.2-.7 2-2 2-3.3 0-1.1-.3-2-1-2.6-.8-.7-1.9-1-3.8-1H5.4l-.1.7s.1.2.3.4c.2.3.2.5.2.7v9.2h2.9v-3.5h3.6l1.9 3.5h3.2L14.8 84zm-1.4-1.8c-.2.2-.5.3-.9.3H8.6v-3.4h3.1c.9 0 1.4.1 1.7.4s.5.7.5 1.2c0 .7-.2 1.2-.5 1.5m28.1-5.1v7.3l-2.6-3-4-4.3h-2.8l-.1.6s.1.2.3.4c.2.3.2.4.2.5V88h2.6v-7.3c.5.7 1.4 1.7 2 2.4l4.5 4.9H44V77l-2.5.1zm28 0v6.7c0 .8-.2 1.2-.5 1.5-.5.4-1.2.6-2.3.6s-1.9-.2-2.4-.6c-.4-.3-.5-.8-.5-1.5v-6.7h-3.2l-.1.7s.1.2.3.4c.1.3.2.4.2.5v5.2c0 2.9 1.9 4.3 5.7 4.3h.1c3.8 0 5.6-1.4 5.6-4.3v-6.8h-2.9zm-15 0H51c-1.1 2.2-3 6.4-4.7 11h2.9c.2-.6.5-1.3.7-1.9h5.9c.2.6.5 1.3.7 1.9h2.9c-1.9-4.6-3.8-8.8-4.9-11m-3.9 7l2.1-5c.6 1.4 1.4 3.1 2.1 5h-4.2z"/><defs><path id="A" d="M48.7 50.1c-2-3.8-3.3-6.5-5.2-10.8-.2-.4-.3-.6-.3-1 0-.3.1-.6.3-1 1.9-4.3 3.2-6.9 5.2-10.8.1-.2.2-.4.3-.4s.2.1.3.4c2 3.8 3.3 6.5 5.2 10.8.2.4.3.6.3 1 0 .3-.1.6-.3 1-1.9 4.3-3.2 6.9-5.2 10.8-.1.2-.2.4-.3.4s-.2-.2-.3-.4m-5.1-35.5c-.2 0-.3.1-.3.1-.1.1-.2.1-.3.3-.4.6-4.9 8-7.7 13.1-2 3.7-4 7.5-4.8 9.3-.2.5-.3.8-.3.9 0 .3.1.6.3.9.8 1.8 2.8 5.7 4.8 9.3 2.8 5.2 7.3 12.5 7.7 13.1.1.1.1.2.2.2.1.1.2.2.3.2h.8c1.1 0 2.9.1 4.8.1 2.3 0 5-.1 5.4-.1h.1c.2 0 .2 0 .3-.1.1 0 .2-.1.4-.4.5-.6 4.9-7.9 7.7-13.1 2-3.7 4-7.5 4.8-9.3.2-.5.3-.8.3-1 0-.3-.1-.5-.3-.9-.8-1.8-2.8-5.7-4.8-9.3L55.2 15c-.1-.2-.2-.3-.3-.4-.1 0-.1-.1-.2-.1h-.9c-.9 0-2.9-.1-4.7-.1l-5.5.2"/><path id="B" d="M30.1 14.5H68v47.8H30.1z"/><path id="C" d="M42.6 24.9H70v27.4H42.6z"/></defs><clipPath id="D"><use xlink:href="#A"/></clipPath><linearGradient id="E" gradientUnits="userSpaceOnUse" x1="49.055" y1="62.313" x2="49.055" y2="14.503"><stop offset="0" stop-color="#ddd"/><stop offset=".687" stop-color="#fff"/><stop offset=".86" stop-color="#cacaca"/><stop offset="1" stop-color="#9c9c9c"/></linearGradient><use xlink:href="#B" clip-path="url(#D)" fill="url(#E)"/><defs><filter id="F" filterUnits="userSpaceOnUse" x="30.1" y="14.5" width="37.9" height="47.8"><feColorMatrix values="-1 0 0 0 1  0 -1 0 0 1  0 0 -1 0 1  0 0 0 1 0" color-interpolation-filters="sRGB" result="A"/><feFlood flood-color="#fff" flood-opacity="1"/><feBlend in="A"/></filter></defs><mask maskUnits="userSpaceOnUse" x="30.1" y="14.5" width="37.9" height="47.8" id="G"><g filter="url(#F)"><use xlink:href="#B"/><g class="l"><use xlink:href="#B"/><linearGradient id="H" gradientUnits="userSpaceOnUse" x1="49.106" y1="65.782" x2="49.106" y2="38.834"><stop offset="0" stop-color="#fff"/><stop offset=".855" stop-color="#fff"/><stop offset=".868" stop-color="#f9f9f9"/><stop offset=".887" stop-color="#e9e9e9"/><stop offset=".907" stop-color="#cecece"/><stop offset=".929" stop-color="#a8a8a8"/><stop offset=".953" stop-color="#777"/><stop offset=".977" stop-color="#3d3d3d"/><stop offset="1"/></linearGradient><path d="M30.1 38.8H68v23.5H30.1z" fill="url(#H)"/></g></g></mask><g mask="url(#G)"><defs><path id="I" d="M30.1 14.5H68v47.8H30.1z"/></defs><clipPath id="J"><use xlink:href="#I"/></clipPath><g clip-path="url(#J)"><defs><path id="K" d="M48.7 50.1c-2-3.8-3.3-6.5-5.2-10.8-.2-.4-.3-.6-.3-1 0-.3.1-.6.3-1 1.9-4.3 3.2-6.9 5.2-10.8.1-.2.2-.4.3-.4s.2.1.3.4c2 3.8 3.3 6.5 5.2 10.8.2.4.3.6.3 1 0 .3-.1.6-.3 1-1.9 4.3-3.2 6.9-5.2 10.8-.1.2-.2.4-.3.4s-.2-.2-.3-.4m-5.1-35.5c-.2 0-.3.1-.3.1-.1.1-.2.1-.3.3-.4.6-4.9 8-7.7 13.1-2 3.7-4 7.5-4.8 9.3-.2.5-.3.8-.3.9 0 .3.1.6.3.9.8 1.8 2.8 5.7 4.8 9.3 2.8 5.2 7.3 12.5 7.7 13.1.1.1.1.2.2.2.1.1.2.2.3.2h.8c1.1 0 2.8.1 4.7.1h.1c2.3 0 5-.1 5.4-.1h.1c.2 0 .2 0 .3-.1.1 0 .2-.1.4-.4.5-.6 4.9-7.9 7.7-13.1 2-3.7 4-7.5 4.8-9.3.2-.5.3-.8.3-1 0-.3-.1-.5-.3-.9-.8-1.8-2.8-5.7-4.8-9.3L55.2 15c-.1-.2-.2-.3-.3-.4-.1 0-.1-.1-.2-.1h-.9c-.9 0-2.9-.1-4.7-.1l-5.5.2"/></defs><clipPath id="L"><use xlink:href="#K"/></clipPath><radialGradient id="M" cx="-1439.619" cy="1072.522" r=".252" gradientTransform="matrix(94.7128,0,0,95.0645,136396.9219,-101931.9609)" gradientUnits="userSpaceOnUse"><stop offset="0" stop-color="#fff"/><stop offset=".401" stop-color="#fff"/><stop offset=".733" stop-color="#cacaca"/><stop offset="1" stop-color="#9c9c9c"/></radialGradient><use xlink:href="#B" clip-path="url(#L)" fill="url(#M)"/></g></g><defs><path id="N" d="M41.3 38.4c-.2.2-.5.3-1.2.3h-8.4c-.4 0-.9 0-.9.6 0 .3.3 1 .9 2.2C35.1 48 38.8 54.6 42.8 61c0 0 .6 1 .7 1.1s.1.1.3.1c0 0 2.5-4.6 4.6-9.7-2.3-4.2-4.4-8.3-6.3-12.5 0 0-.6-1-.6-1.5v-.2c-.1 0-.1 0-.2.1"/></defs><clipPath id="O"><use xlink:href="#N"/></clipPath><linearGradient id="P" gradientUnits="userSpaceOnUse" x1="39.552" y1="61.993" x2="39.552" y2="38.461"><stop offset="0" stop-color="#ddd"/><stop offset=".01" stop-color="#ddd"/><stop offset=".339" stop-color="#acabab"/><stop offset=".477" stop-color="#8e8d8d"/><stop offset=".694" stop-color="#585857"/><stop offset=".845" stop-color="#3e3e3d"/><stop offset=".898" stop-color="#373736"/><stop offset=".948" stop-color="#2c2b2b"/><stop offset=".96" stop-color="#302f2f"/><stop offset=".971" stop-color="#3b3a3a"/><stop offset=".982" stop-color="#4e4d4d"/><stop offset=".993" stop-color="#686767"/><stop offset="1" stop-color="#7f7f7f"/></linearGradient><path d="M30.9 38.3h17.5v23.8H30.9z" clip-path="url(#O)" fill="url(#P)"/><defs><path id="Q" d="M43.8 62.1h0"/></defs><clipPath ><use xlink:href="#Q"/></clipPath><linearGradient  gradientUnits="userSpaceOnUse" x1="5830.241" y1="5649.028" x2="5830.241" y2="5649.028"><stop offset="0" stop-color="#ddd"/><stop offset=".01" stop-color="#ddd"/><stop offset=".339" stop-color="#acabab"/><stop offset=".477" stop-color="#8e8d8d"/><stop offset=".694" stop-color="#585857"/><stop offset=".845" stop-color="#3e3e3d"/><stop offset=".898" stop-color="#373736"/><stop offset=".948" stop-color="#2c2b2b"/><stop offset=".96" stop-color="#302f2f"/><stop offset=".971" stop-color="#3b3a3a"/><stop offset=".982" stop-color="#4e4d4d"/><stop offset=".993" stop-color="#686767"/><stop offset="1" stop-color="#7f7f7f"/></linearGradient><defs><path id="T" d="M67.5 38.5c-.1.1-.3.2-.9.2h-7c-3.2 0-2.9-.1-3.7 1.6l-1.1 2.4c-2.8 5.8-9.6 17.5-10.5 19-.3.5-.4.6-.1.6a127.06 127.06 0 0 0 4.9.1c4 0 5.4-.1 5.4-.1 2.3-3.6 7.9-12.8 11.8-20.7.9-1.8 1.4-2.6 1.3-3 0-.2 0-.2-.1-.1.1-.1 0-.1 0 0"/></defs><clipPath id="U"><use xlink:href="#T"/></clipPath><linearGradient id="V" gradientUnits="userSpaceOnUse" x1="55.768" y1="62.007" x2="55.768" y2="38.435"><stop offset="0" stop-color="#ddd"/><stop offset=".01" stop-color="#ddd"/><stop offset=".339" stop-color="#acabab"/><stop offset=".477" stop-color="#8e8d8d"/><stop offset=".694" stop-color="#585857"/><stop offset=".845" stop-color="#3e3e3d"/><stop offset=".901" stop-color="#373736"/><stop offset=".954" stop-color="#2c2b2b"/><stop offset=".964" stop-color="#302f2f"/><stop offset=".974" stop-color="#3b3a3a"/><stop offset=".984" stop-color="#4e4d4d"/><stop offset=".993" stop-color="#686767"/><stop offset="1" stop-color="#7f7f7f"/></linearGradient><path d="M43.9 38.4h23.7v23.9H43.9z" clip-path="url(#U)" fill="url(#V)"/><defs><path id="W" d="M53.8 15.2c-2 3-8.8 15.8-11.5 21.8-.3.7-.5 1.1-.5 1.4h1.4c0-.3.1-.6.3-1 1.9-4.3 3.2-6.9 5.2-10.8.1-.2.2-.4.3-.4h0l.6-1.6c2-4.9 4.7-10 4.7-10-.2.1-.3.2-.5.6"/></defs><clipPath id="X"><use xlink:href="#W"/></clipPath><linearGradient id="Y" gradientUnits="userSpaceOnUse" x1="48.031" y1="38.233" x2="48.031" y2="14.506"><stop offset="0" stop-color="#585857"/><stop offset=".009" stop-color="#4e4e4d"/><stop offset=".024" stop-color="#424241"/><stop offset=".04" stop-color="#3e3e3d"/><stop offset=".104" stop-color="#3b3b3a"/><stop offset=".153" stop-color="#313131"/><stop offset=".197" stop-color="#212121"/><stop offset=".238" stop-color="#0a0a0a"/><stop offset=".252"/></linearGradient><path d="M41.7 14.7h12.6v23.7H41.7z" clip-path="url(#X)" fill="url(#Y)"/><defs><path id="Z" d="M49.1 26.3h0c.1 0 .2.1.3.4 2 3.8 3.3 6.5 5.2 10.8.2.4.3.6.3 1h1.4c0-.4-.2-.7-.5-1.4-1.9-4.1-3.9-8-6.2-12.3l-.5 1.5z"/></defs><clipPath id="a"><use xlink:href="#Z"/></clipPath><linearGradient id="b" gradientUnits="userSpaceOnUse" x1="52.711" y1="38.411" x2="52.711" y2="24.676"><stop offset="0" stop-color="#828282"/><stop offset=".18" stop-color="#7d7d7d"/><stop offset=".382" stop-color="#707070"/><stop offset=".594" stop-color="#5a5a59"/><stop offset=".795" stop-color="#3e3e3d"/><stop offset=".824" stop-color="#383837"/><stop offset=".863" stop-color="#262626"/><stop offset=".908" stop-color="#0a0a09"/><stop offset=".921"/></linearGradient><path d="M49.1 24.7h7.3v13.7h-7.3z" clip-path="url(#a)" fill="url(#b)"/><defs><path id="c" d="M43.2 38.4h0zm-.9 1.4h0c1.9 4.1 3.9 8 6.2 12.3l.6-1.6c-.1 0-.2-.1-.3-.4-2-3.8-3.3-6.5-5.2-10.8-.2-.4-.3-.6-.3-1h-1.4c-.2.4 0 .8.4 1.5"/></defs><clipPath id="d"><use xlink:href="#c"/></clipPath><linearGradient id="e" gradientUnits="userSpaceOnUse" x1="45.403" y1="52.157" x2="45.403" y2="38.426"><stop offset="0" stop-color="silver"/><stop offset=".357" stop-color="silver"/><stop offset=".501" stop-color="#bcbcbc"/><stop offset=".657" stop-color="#aeaeae"/><stop offset=".819" stop-color="#999"/><stop offset=".963" stop-color="#7f7f7f"/><stop offset="1" stop-color="#585857"/></linearGradient><path d="M41.7 38.4H49v13.7h-7.3z" clip-path="url(#d)" fill="url(#e)"/><defs><path id="f" d="M42.3 39.8h0c1.9 4.1 3.9 8 6.2 12.3l.6-1.6c-.1 0-.2-.1-.3-.4-2-3.8-3.3-6.5-5.2-10.8-.2-.4-.3-.6-.3-1h0-1.4c-.2.4 0 .8.4 1.5"/></defs><clipPath id="g"><use xlink:href="#f"/></clipPath><defs><filter id="h" filterUnits="userSpaceOnUse" x="29.4" y="29" width="32" height="32.4"><feColorMatrix values="1 0 0 0 0  0 1 0 0 0  0 0 1 0 0  0 0 0 1 0"/></filter></defs><mask maskUnits="userSpaceOnUse" x="29.4" y="29" width="32" height="32.4" id="i"><g filter="url(#h)"><path d="M36.6 35.6h17.6v19.2H36.6z" class="n"/><g class="l"><defs><path id="j" transform="matrix(.4112 -.9116 .9116 .4112 -14.5239 68.0322)" d="M37.6 39.1h15.5v12.3H37.6z"/></defs><clipPath id="k" class="n"><use xlink:href="#j"/></clipPath><linearGradient id="l" gradientUnits="userSpaceOnUse" x1="50.67" y1="47.665" x2="38.17" y2="42.026"><stop offset="0" stop-color="#d8d8d8"/><stop offset=".013" stop-color="#d8d8d8"/><stop offset=".11" stop-color="#222221"/></linearGradient><path d="M61.4 38.9L39.6 29 29.4 51.6l21.8 9.9z" clip-path="url(#k)" fill="url(#l)"/></g></g></mask><g mask="url(#i)" class="n"><defs><path id="m" d="M36.6 35.6h17.6v19.2H36.6z"/></defs><clipPath id="n"><use xlink:href="#m"/></clipPath><g clip-path="url(#n)"><defs><path id="o" transform="matrix(.4112 -.9116 .9116 .4112 -14.5234 68.0332)" d="M37.6 39.1h15.5v12.3H37.6z"/></defs><clipPath id="p"><use xlink:href="#o"/></clipPath><linearGradient id="q" gradientUnits="userSpaceOnUse" x1="50.756" y1="47.599" x2="38.254" y2="41.959"><stop offset="0" stop-color="#e6e6e6"/><stop offset=".013" stop-color="#e6e6e6"/><stop offset=".11" stop-color="#e2e2e2"/></linearGradient><path d="M61.4 38.9L39.6 29 29.4 51.6l21.8 9.9z" clip-path="url(#p)" fill="url(#q)"/></g></g><defs><path id="r" d="M54.9 38.4c0 .3-.1.6-.3 1-1.9 4.3-3.2 6.9-5.2 10.8-.1.2-.2.4-.3.4l-.6 1.6c-2.1 5.2-4.7 10-4.7 10 .2 0 .3-.2.6-.5.1-.1.1-.2.2-.4 1.5-2.5 8.6-15.7 11.3-21.4.3-.7.5-1.1.5-1.4h-1.5v-.1z"/></defs><clipPath id="s"><use xlink:href="#r"/></clipPath><linearGradient id="t" gradientUnits="userSpaceOnUse" x1="50.033" y1="61.933" x2="50.033" y2="38.19"><stop offset="0" stop-color="#fff"/><stop offset=".22" stop-color="#f9f9f9"/><stop offset=".504" stop-color="#e9e9e9"/><stop offset=".822" stop-color="#cfcfcf"/><stop offset=".969" stop-color="silver"/><stop offset=".991" stop-color="#828282"/></linearGradient><path d="M43.8 38.4h12.6v23.7H43.8z" clip-path="url(#s)" fill="url(#t)"/><defs><path id="u" d="M29.2 38.4c0 .3.1.7.3 1.3.7 1.4 2.5 5.1 4.9 9.4 2.6 4.7 7.3 12.5 7.8 13.2.2.3.4.5.6.6l.4-.9c-.1 0-.2-.1-.2-.2-.5-.6-4.9-8-7.7-13.1-2-3.7-4-7.5-4.8-9.3-.2-.4-.3-.7-.3-.9l-1-.1z"/></defs><clipPath id="v"><use xlink:href="#u"/></clipPath><linearGradient id="w" gradientUnits="userSpaceOnUse" x1="36.172" y1="62.933" x2="36.172" y2="38.409"><stop offset="0" stop-color="#7f7f7f"/><stop offset=".484" stop-color="#737373"/><stop offset=".97" stop-color="#6f6f6f"/><stop offset=".987" stop-color="#888"/><stop offset="1" stop-color="#989897"/></linearGradient><path d="M29.2 38.4h14v24.5h-14z" clip-path="url(#v)" fill="url(#w)"/><defs><path id="x" d="M42.8 62.9c.3.2.5.2.8.2.7.1 3.8.1 5.5.1l5.5-.1c.2 0 .4 0 .6-.1l-.4-.9s-.1 0-.3.1h-.1l-5.4.1c-1.9 0-3.6 0-4.8-.1h-.8c-.1 0-.2-.1-.3-.2l-.3.9z"/></defs><clipPath id="y"><use xlink:href="#x"/></clipPath><linearGradient id="z" gradientUnits="userSpaceOnUse" x1="44.31" y1="59.953" x2="53.754" y2="65.406"><stop offset="0" stop-color="#7f7f7f"/><stop offset=".019" stop-color="#7f7f7f"/><stop offset=".032" stop-color="#727271"/><stop offset=".058" stop-color="#5c5c5c"/><stop offset=".082" stop-color="#4f4f4e"/><stop offset=".105" stop-color="#4b4b4a"/></linearGradient><path d="M42.3 62.9l9.8 5.7 3.6-6.3-9.8-5.6z" clip-path="url(#y)" fill="url(#z)"/><defs><path id="AA" d="M54.8 14.7a1.38 1.38 0 0 1 .3.4c.5.6 4.9 8 7.7 13.1 2 3.7 4 7.5 4.8 9.3.2.4.3.6.3.9l.9.1c0-.3-.1-.7-.3-1.3-.7-1.5-3-5.9-4.9-9.4-2.5-4.6-7.3-12.5-7.8-13.2-.3-.4-.5-.6-.7-.7l-.3.8z"/></defs><clipPath id="AB"><use xlink:href="#AA"/></clipPath><linearGradient id="AC" gradientUnits="userSpaceOnUse" x1="51.558" y1="20.446" x2="72.491" y2="31.907"><stop offset="0" stop-color="#7b7b7a"/><stop offset="1" stop-color="#828282"/></linearGradient><path d="M44.5 32.7l21.2 11.6 13.6-24.8L58.1 7.9z" clip-path="url(#AB)" fill="url(#AC)"/><defs><path id="AD" d="M43.5 13.7c-.2 0-.4.1-.6.1l.4.9c.1 0 .1-.1.3-.1l5.4-.1 4.7.1h.9c.1 0 .1 0 .2.1l.4-.9c-.2-.1-.4-.1-.6-.1-.7-.1-3.9-.1-5.5-.1l-5.6.1"/></defs><clipPath id="AE"><use xlink:href="#AD"/></clipPath><linearGradient id="AF" gradientUnits="userSpaceOnUse" x1="54.657" y1="15.722" x2="43.317" y2="12.471"><stop offset="0" stop-color="#7b7b7a"/><stop offset=".01" stop-color="#7b7b7a"/><stop offset=".012" stop-color="#7e7e7d"/><stop offset=".035" stop-color="#979796"/><stop offset=".057" stop-color="#a7a6a6"/><stop offset=".074" stop-color="#acabab"/><stop offset=".501" stop-color="#c0c0bf"/><stop offset="1" stop-color="silver"/></linearGradient><path d="M55.5 13.6l-11.7-3.3-1.2 4.3 11.7 3.3z" clip-path="url(#AE)" fill="url(#AF)"/><defs><path id="AG" d="M42.2 14.5c-.5.7-5.2 8.6-7.8 13.2-1.8 3.2-4.6 8.8-4.9 9.4s-.3 1-.3 1.3h.9c0-.1 0-.5.3-.9.8-1.8 2.8-5.7 4.8-9.3C38.1 23 42.5 15.7 43 15c.1-.2.2-.3.3-.3l-.4-.9c-.3.1-.5.3-.7.7"/></defs><clipPath id="AH"><use xlink:href="#AG"/></clipPath><linearGradient id="AI" gradientUnits="userSpaceOnUse" x1="25.961" y1="30.056" x2="46.182" y2="22.294"><stop offset="0" stop-color="#989897"/><stop offset=".987" stop-color="#828282"/><stop offset="1" stop-color="silver"/></linearGradient><path d="M31 43.1l20.5-7.9-10-26.1L21 17z" clip-path="url(#AH)" fill="url(#AI)"/><defs><path id="AJ" d="M54.8 62.1h0zm12.9-22.8c-.8 1.8-2.8 5.7-4.8 9.3-2.8 5.2-7.3 12.5-7.7 13.1-.2.3-.3.3-.4.4l.4.9a1.54 1.54 0 0 0 .7-.7c.5-.7 5.6-9.1 7.8-13.2l4.9-9.4c.3-.7.3-1.1.3-1.3l-.9-.1c0 .2 0 .6-.3 1"/></defs><clipPath id="AK"><use xlink:href="#AJ"/></clipPath><linearGradient id="AL" gradientUnits="userSpaceOnUse" x1="61.869" y1="62.999" x2="61.869" y2="38.34"><stop offset="0" stop-color="#4b4b4a"/><stop offset=".019" stop-color="#4b4b4a"/><stop offset=".207" stop-color="#545453"/><stop offset=".59" stop-color="#605f5f"/><stop offset=".97" stop-color="#646363"/><stop offset=".982" stop-color="#727171"/><stop offset="1" stop-color="#828282"/></linearGradient><path d="M54.8 38.3h14.1V63H54.8z" clip-path="url(#AK)" fill="url(#AL)"/><path d="M54.1 14.6c.1 0-.2.2-.8.2h-3.4l-6.1.1c-.7 0-.7.1-1.1.5h0l.2-.3c.1-.2.2-.3.3-.3s.1-.1.3-.1l5.4-.1 4.7.1c.3-.1.4-.1.5-.1" fill="#fff"/><defs><path id="AM" d="M49.2 26.8c.2.3 1.6 3 2.9 5.6l2.4 5.1c.2.4.3.6.3.9s-.1.5-.2.8h0l-2.4 5.1-2.8 5.6c0 .1-.1.2-.1.2s-.1-.1-.1-.2c0 0 0-.1-.1-.1l-2.8-5.5-2.4-5.1c-.1-.3-.2-.6-.2-.8 0-.3.1-.6.3-.9 0 0 0-.1.1-.1l2.3-4.9 2.7-5.4c-3.8 2.4-6.3 6.7-6.3 11.5 0 7.6 6.1 13.7 13.7 13.7 2.4 0 4.7-.6 6.7-1.8.3-.5.6-1 .8-1.5 2.2-4 4.6-8.8 4.9-9.4.3-.7.3-1 .3-1.3 0-.2 0-.7-.3-1.3-.7-1.5-3-5.9-4.9-9.4-.1-.3-.3-.5-.5-.8-2.1-1.2-4.5-2-7-2-2.9.1-5.3.8-7.3 2"/></defs><clipPath id="AN"><use xlink:href="#AM"/></clipPath><defs><filter id="AO" filterUnits="userSpaceOnUse" x="42.6" y="24.9" width="27.4" height="27.4"><feColorMatrix values="1 0 0 0 0  0 1 0 0 0  0 0 1 0 0  0 0 0 1 0"/></filter></defs><mask maskUnits="userSpaceOnUse" x="42.6" y="24.9" width="27.4" height="27.4" id="AX"><g filter="url(#AO)"><use xlink:href="#C" class="m"/><g class="l"><use xlink:href="#C" class="m"/><defs><path id="AQ" d="M52.3 38.6h0c0 2.3 1.8 4.1 4.1 4.1s4.1-1.8 4.1-4.1-1.8-4.1-4.1-4.1-4.1 1.8-4.1 4.1"/></defs><clipPath id="AR" class="m"><use xlink:href="#AQ"/></clipPath><radialGradient id="AS" cx="-1389.916" cy="1038.938" r=".252" gradientTransform="matrix(16.2454 0 0 16.2454 22636.123 -16839.3809)" gradientUnits="userSpaceOnUse"><stop offset="0" stop-color="#fff"/><stop offset=".166" stop-color="#fff"/><stop offset=".187" stop-color="#f2f2f2"/><stop offset=".281" stop-color="#bababa"/><stop offset=".379" stop-color="#888"/><stop offset=".477" stop-color="#5e5e5e"/><stop offset=".577" stop-color="#3c3c3c"/><stop offset=".677" stop-color="#222"/><stop offset=".78" stop-color="#0f0f0f"/><stop offset=".886" stop-color="#040404"/><stop offset="1"/></radialGradient><path d="M52.3 34.5h8.2v8.2h-8.2z" clip-path="url(#AR)" fill="url(#AS)"/></g></g></mask><g mask="url(#AX)" class="m"><defs><path id="AT" d="M42.6 24.9H70v27.4H42.6z"/></defs><clipPath id="AU"><use xlink:href="#AT"/></clipPath><g clip-path="url(#AU)"><defs><path id="AV" d="M56.3 24.9c-7.6 0-13.7 6.1-13.7 13.7s6.1 13.7 13.7 13.7S70 46.2 70 38.6s-6.1-13.7-13.7-13.7z"/></defs><clipPath id="AW"><use xlink:href="#AV"/></clipPath><defs/><mask maskUnits="userSpaceOnUse" x="42.6" y="24.9" width="27.4" height="27.4" id="AX"><g filter="url(#AO)"><use xlink:href="#C" class="o"/><g class="l"><radialGradient id="AY" cx="-1432.281" cy="1067.058" r=".252" gradientTransform="matrix(54.4977,0,0,54.4977,78112.3281,-58113.5742)" gradientUnits="userSpaceOnUse"><stop offset="0" stop-color="#fff"/><stop offset=".145" stop-color="#c2c2c2"/><stop offset=".362" stop-color="#6d6d6c"/><stop offset=".516" stop-color="#373736"/><stop offset=".59" stop-color="#222221"/></radialGradient><use xlink:href="#C" fill="url(#AY)" class="o"/></g></g></mask><g class="o"><defs><path id="AZ" d="M42.6 24.9H70v27.4H42.6z"/></defs><clipPath id="Aa"><use xlink:href="#AZ"/></clipPath><g clip-path="url(#Aa)"><defs><path id="Ab" d="M42.6 24.9H70v27.4H42.6z"/></defs><clipPath id="Ac"><use xlink:href="#Ab"/></clipPath><radialGradient id="Ad" cx="-1432.281" cy="1067.058" r=".252" gradientTransform="matrix(54.4977,0,0,54.4977,78112.3281,-58113.5742)" gradientUnits="userSpaceOnUse"><stop offset="0" stop-color="#fff"/></radialGradient><use xlink:href="#C" clip-path="url(#Ac)" fill="url(#Ad)"/></g></g></g></g><path d="M54.6 37.4l-2.4-5.1-2.9-5.7c-.1-.2-.2-.4-.3-.4s-.2.1-.3.4c-.1.1-1.6 3-2.9 5.7l-2.4 5.1c-.1.3-.3.6-.3 1 0 .3.1.6.3 1l2.4 5.1 2.9 5.7c.1.2.2.4.3.4s.2-.1.3-.4c.1-.1 1.5-2.9 2.9-5.7l2.4-5.1c.2-.4.3-.6.3-1 0-.3-.1-.6-.3-1m-.2 1.8h0L52 44.3l-2.8 5.6c0 .1-.1.2-.1.2s-.1-.1-.1-.2c0 0 0-.1-.1-.1l-2.8-5.5-2.4-5.1c-.1-.3-.2-.6-.2-.8 0-.3.1-.6.3-.8 0 0 0-.1.1-.1l2.3-4.9 2.9-5.7c0-.1.1-.2.1-.2s.1.1.1.2l2.9 5.7 2.4 5.1c.2.4.3.6.3.9-.2.1-.3.3-.5.6m14.2-2.1c-.7-1.5-3-5.9-4.9-9.4-2.6-4.7-7.3-12.5-7.8-13.2s-.8-.7-1.3-.8h-.1c-.7-.1-3.7-.1-5.5-.1-1.5 0-4.8 0-5.6.1-.7.1-.9.3-1.3.8-.6.7-5.3 8.7-7.8 13.2-1.8 3.2-4.6 8.8-4.9 9.4-.2.5-.3 1-.3 1.3 0 .4.1.8.3 1.3.6 1.3 2.4 4.8 4.9 9.4 2.6 4.7 7.3 12.5 7.8 13.2s.9.7 1.3.8c.7.1 3.8.1 5.5.1 1.8 0 5.1-.1 5.5-.1s.8-.1 1.3-.8 5.5-9.1 7.8-13.2c2.2-4 4.6-8.8 4.9-9.4.3-.7.3-1 .3-1.3.2-.2.2-.7-.1-1.3m-.3 2.5c-.3.6-2.7 5.4-4.9 9.4-2.3 4.1-7.3 12.5-7.8 13.2-.4.6-.7.6-1.1.7-.4 0-3.7.1-5.5.1-1.7 0-4.8 0-5.5-.1-.4 0-.7-.1-1.2-.7-.5-.7-5.2-8.5-7.8-13.2-2.5-4.5-4.3-8.1-4.9-9.4-.2-.5-.3-.9-.3-1.2s.1-.7.3-1.2c.3-.6 3.1-6.1 4.9-9.4l7.7-13.2c.4-.5.5-.7 1.1-.7.8-.1 4-.1 5.5-.1 1.8 0 4.8 0 5.5.1h.1c.5 0 .7.1 1.1.7.5.7 5.2 8.5 7.8 13.2 1.9 3.4 4.1 7.9 4.9 9.4.3.6.3 1 .3 1.2.2.3.1.6-.2 1.2"/></svg>