<svg xmlns="http://www.w3.org/2000/svg" viewBox="0 0 100 100"  fill="#003a70" xmlns:v="https://vecta.io/nano"><path d="M16 36.1c-1.8 2.8-2.4 5.7-1.4 9 .8 2.6 2.5 4.6 4.5 6.3 2.7 2.3 5.8 4 9.1 5.3 6.4 2.5 13.1 3.6 19.9 3.8 3.3.1 6.6 0 9.9-.4 3.4-.4 6.8-1 10.1-1.9 4.3-1.2 8.4-2.8 12.1-5.4 2.3-1.6 4.3-3.4 5.8-5.8 1.4-2.3 2-4.9 1.4-7.6-.5-2.2-1.6-4.1-3.2-5.8-2.3-2.5-5.1-4.3-8.2-5.7-3.6-1.7-7.5-2.9-11.4-3.6-2.7-.5-5.5-.9-8.3-1.1-.6 0-1.3-.1-1.9-.2h-6.1c-.1 0-.2.1-.3.1-1.1.1-2.1.1-3.1.2-3.3.3-6.6.8-9.8 1.6-4.4 1.1-8.7 2.7-12.6 5-2.6 1.8-4.9 3.7-6.5 6.2M58.6 49c-1.1 3.1-2 5.5-4.2 7.6-.9.7-1.9 1-3 1.1-.8.1-1.6.1-2 .1-2.8 0-5.3-.3-7.8-.7-2.6-.3-5.2-.8-7.7-1.5-.9-.2-1.3-.4-2.2-.7-.7-.3-.6-1 0-1.4 5.9-4 11.1-6.7 17.8-8.5 1.7-.5 4-.9 5.9-.9 1.5 0 2.3.5 3.1 1.8.5.9.3 2.1.1 3.1m17.1-14.1c.3-.6.6-1.2.9-1.7.4-.7.8-.9 1.5-.5 3.5 1.7 5.6 4.5 6.3 8.3v.8c0 2-.7 3.7-1.9 5.2-1.6 2.1-3.7 3.6-5.9 4.8-3.9 2.2-8 3.6-12.4 4.3-.2 0-.5 0-.6-.1-.1-.2 0-.5.1-.7l1.8-2.4c2.1-2.8 3.9-5.8 5.6-8.9 1.6-2.9 3.1-6 4.6-9.1m-29.2-7c1.3-1.4 3-2.1 4.9-2.1 5.2.1 9.6.4 14.3 1.6 1.3.3 2.5.7 3.8 1.1.4.1.5.1.7.4.4.4-.1.7-.5 1.1-.2.3-1.4 1.2-1.7 1.3-4.9 3-6.5 3.8-11.9 5.9-2.1.8-6.1 2.2-8.3 2.3-.9 0-1.9-.1-2.8-.4-1.4-.6-1.9-1.8-1.8-3.6.3-2.7 1.1-5.4 3.3-7.6m-10.6-.2c.7-.2 1.5-.2 2.3-.2.7 0 .8.3.4.8-1.1 1.4-2.2 2.8-3.2 4.2-3.8 5.1-7.1 10.5-9.2 16.6-.2.6-.5 1.1-.8 1.6-.4.7-.9.8-1.7.6-.9-.3-1.7-.9-2.4-1.6-1.5-1.5-2.9-3.1-3.6-5.2-.3-.8-.4-1.7-.6-2.5h.1c0-2.1.9-3.9 2.3-5.5 1.5-1.8 3.4-3.2 5.5-4.4 3.3-2.1 7-3.4 10.9-4.4m36.7 39.7h-9.7v13.3h9.7c1.3 0 2.4-1.1 2.4-2.4v-8.6c-.1-1.3-1.1-2.3-2.4-2.3zm-1.2 10.4H66v-7.6h5.4c.2 0 .4.2.4.4v6.8c0 .2-.2.4-.4.4zm-11.6-8.4v.3-.3zm33.2-2h3.1v13.3H93zm-61.5 0L26 76v4.7h-3.1V70.3l1.5 2.4 1.6-2.4 1.8-2.9z"/><path d="M22.9 70.3V76l-5.6-8.6H21zm-6.8-2.9v13.3H13v-5.1H7v5.1H3.9V67.4H7v5.1h6v-5.1zm43.7 2v11.3h-3.1V70.4h-5.9v10.2h-3.1V67.4h9.7c1.3 0 2.3.8 2.4 2zm-15 9.2V67.4h-3.1v10.2h-5.9V67.4h-3.1v13.3h9.7c1.3 0 2.3-.9 2.4-2.1zm35.4-11.2c-1.3 0-2.4 1.1-2.4 2.4v11h3.1v-4.2h5.9v4.2h3.1V67.4h-9.7zm6.6 6.2h-5.9v-3c0-.2.2-.4.4-.4h5.5v3.4z"/></svg>